<?xml version="1.0" encoding="UTF-8"?>
<!DOCTYPE svg PUBLIC "-//W3C//DTD SVG 1.1//EN" "http://www.w3.org/Graphics/SVG/1.1/DTD/svg11.dtd">
<!-- Creator: CorelDRAW -->
<svg xmlns="http://www.w3.org/2000/svg" xml:space="preserve" width="2048px" height="2048px" style="shape-rendering:geometricPrecision; text-rendering:geometricPrecision; image-rendering:optimizeQuality; fill-rule:evenodd; clip-rule:evenodd"
viewBox="0 0 2048 2048"
 xmlns:xlink="http://www.w3.org/1999/xlink">
 <defs>
  <style type="text/css">
   <![CDATA[
    .fil0 {fill:none}
    .fil3 {fill:#26A69A}
    .fil2 {fill:#4DB6AC}
    .fil4 {fill:white}
    .fil1 {fill:#00897B;fill-rule:nonzero}
   ]]>
  </style>
 </defs>
 <g id="Layer_x0020_1">
  <metadata id="CorelCorpID_0Corel-Layer"/>
  <rect class="fil0" width="2048" height="2048"/>
  <rect class="fil0" x="255.999" y="255.999" width="1536" height="1536"/>
  <rect class="fil0" x="256" y="256" width="1536" height="1536"/>
  <g id="_206720552">
   <path id="_206721272" class="fil1" d="M1678.4 919.221c33.4571,0 58.8697,10.7126 76.7835,28.9536 19.337,19.6866 28.4634,46.8059 28.4634,77.654l0 355.705c0,30.4701 -9.07087,61.5851 -28.3311,84.417 -11.7992,13.989 -26.9988,24.7299 -45.7725,30.3591l16.1669 65.2063 17.263 69.6225 -61.878 -36.3697 -160.069 -94.082 -429.598 0c-33.2516,0 -65.7898,-14.0717 -89.9847,-35.1626 -25.4303,-22.1729 -42.2351,-52.6949 -42.2351,-83.9906l719.191 -462.312z"/>
   <path id="_206721104" class="fil2" d="M980.28 447.998l1.16811 0 512.541 0c51.8622,0 101.556,22.474 138.458,55.9701 38.5914,35.0315 63.763,82.7776 63.763,130.533l0 610.241c0,47.5134 -24.2221,87.841 -61.839,116.482 -37.2343,28.3488 -88.017,45.091 -140.382,45.091l-513.325 0 -0.383859 0 0 -958.316z"/>
   <path id="_206720936" class="fil3" d="M486.821 447.998l493.459 0 0 958.316 -214.684 0 -405.264 239.818 65.517 -247.462c-37.128,-8.38347 -72.8469,-23.9918 -100.743,-45.1122 -36.5611,-27.6803 -60.756,-64.891 -60.756,-108.816l0 -610.241c0,-47.6528 29.6339,-94.5721 72.3709,-129.242 42.078,-34.1374 97.8662,-57.2611 150.101,-57.2611z"/>
   <g>
    <path id="_206720840" class="fil4" d="M757.208 916.463c0,-52.8 -42.8032,-95.602 -95.6032,-95.602 -52.8012,0 -95.602,42.802 -95.602,95.602 0,52.8 42.8008,95.6032 95.602,95.6032 52.8,0 95.6032,-42.8032 95.6032,-95.6032z"/>
    <path id="_206720720" class="fil4" d="M980.28 820.861c-52.8012,0 -95.6044,42.802 -95.6044,95.602 0,52.8 42.8032,95.6032 95.6044,95.6032 52.8,0 95.6032,-42.8032 95.6032,-95.6032 0,-52.8 -42.8032,-95.602 -95.6032,-95.602z"/>
    <path id="_206720696" class="fil4" d="M1203.35 916.463c0,52.8 42.8032,95.6032 95.6044,95.6032 52.8,0 95.6032,-42.8032 95.6032,-95.6032 0,-52.8 -42.8032,-95.602 -95.6032,-95.602 -52.8012,0 -95.6044,42.802 -95.6044,95.602z"/>
   </g>
  </g>
 </g>
</svg>
